<svg xmlns="http://www.w3.org/2000/svg" viewBox="0 0 64 64">
  <defs>
    <linearGradient id="g" x1="8" y1="4" x2="56" y2="60" gradientUnits="userSpaceOnUse">
      <stop stop-color="#8B7CFF"/>
      <stop offset=".55" stop-color="#5B6CFF"/>
      <stop offset="1" stop-color="#29C5F6"/>
    </linearGradient>
  </defs>
  <rect x="3" y="3" width="58" height="58" rx="18" fill="#10152A"/>
  <path d="M16 25.2c0-5.1 4.1-9.2 9.2-9.2 2.7 0 5.1 1.1 6.8 3 1.7-1.9 4.1-3 6.8-3 5.1 0 9.2 4.1 9.2 9.2 0 9.2-10.4 17.3-16 21.2-5.6-3.9-16-12-16-21.2Z" fill="url(#g)"/>
  <circle cx="25.3" cy="26.7" r="3.5" fill="white"/>
  <circle cx="38.7" cy="26.7" r="3.5" fill="white"/>
  <path d="M23 35c2.2-2.5 5.2-3.7 9-3.7s6.8 1.2 9 3.7" fill="none" stroke="white" stroke-width="3.2" stroke-linecap="round"/>
</svg>
